<svg data-v-423bf9ae="" xmlns="http://www.w3.org/2000/svg" viewBox="0 0 312.96258150613437 60" class="font"><!----><!----><!----><g data-v-423bf9ae="" id="03c580f7-d183-4d70-adb7-21a800bbc3d5" fill="white" transform="matrix(4.966871763892457,0,0,4.966871763892457,-4.17217250247262,-18.575907889559453)"><path d="M10.00 15.82L5.42 11.24L0.84 15.82L0.84 4.07C0.84 3.92 0.97 3.79 1.11 3.79L2.73 3.79C2.88 3.79 3.00 3.92 3.00 4.07L3.00 10.61L5.42 8.19L7.84 10.61L7.84 4.07C7.84 3.92 7.97 3.79 8.12 3.79L9.73 3.79C9.88 3.79 10.00 3.92 10.00 4.07ZM19.88 15.54C19.88 15.69 19.75 15.82 19.61 15.82L11.96 15.82C11.80 15.82 11.68 15.69 11.68 15.54L11.68 4.06C11.68 3.91 11.80 3.78 11.96 3.78L19.33 3.78C19.49 3.78 19.61 3.91 19.61 4.06L19.61 5.70C19.61 5.85 19.49 5.96 19.33 5.96L13.86 5.96L13.86 8.71L19.05 8.71C19.21 8.71 19.33 8.82 19.33 8.97L19.33 10.61C19.33 10.77 19.21 10.89 19.05 10.89L13.86 10.89L13.86 13.62L19.61 13.62C19.75 13.62 19.88 13.75 19.88 13.90ZM29.04 9.80C29.79 9.13 30.17 8.23 30.17 7.34C30.17 6.38 29.74 5.46 28.97 4.80C28.17 4.13 27.08 3.78 25.80 3.78L21.70 3.78C21.55 3.78 21.42 3.91 21.42 4.07L21.42 5.21L23.76 8.71L21.42 8.71L21.42 15.53C21.42 15.68 21.55 15.82 21.70 15.82L25.80 15.82C28.67 15.82 30.17 14.03 30.17 12.26C30.17 11.33 29.76 10.44 29.04 9.80ZM24.56 5.96L25.80 5.96C27.30 5.96 27.99 6.68 27.99 7.34C27.99 7.91 27.47 8.51 26.36 8.67ZM23.60 13.62L23.60 10.89L25.80 10.89C27.30 10.89 27.99 11.61 27.99 12.26C27.99 12.92 27.30 13.62 25.80 13.62ZM39.94 15.29C40.31 15.12 40.66 14.92 40.99 14.69L40.99 14.67L41.01 14.67C41.01 14.66 41.01 14.66 41.02 14.66C41.13 14.56 41.15 14.38 41.03 14.27L39.98 13.02C39.90 12.91 39.73 12.88 39.62 12.95C39.62 12.96 39.61 12.96 39.61 12.96C38.01 14.04 35.81 13.76 34.54 12.26C33.17 10.64 33.36 8.22 34.97 6.85C36.25 5.77 38.04 5.66 39.40 6.45C39.51 6.51 39.62 6.50 39.70 6.43L41.02 5.32C41.13 5.22 41.15 5.04 41.03 4.91L41.01 4.89L40.96 4.86C38.77 3.29 35.70 3.35 33.56 5.17C31.01 7.32 30.70 11.14 32.86 13.68C34.64 15.78 37.55 16.35 39.94 15.29ZM47.35 15.82C44.03 15.82 41.33 13.12 41.33 9.80C41.33 6.48 44.03 3.78 47.35 3.78C50.67 3.78 53.37 6.48 53.37 9.80C53.37 13.12 50.67 15.82 47.35 15.82ZM47.35 5.96C45.23 5.96 43.51 7.69 43.51 9.80C43.51 11.91 45.23 13.62 47.35 13.62C49.46 13.62 51.17 11.91 51.17 9.80C51.17 7.69 49.46 5.96 47.35 5.96ZM54.70 3.79L59.28 8.37L63.85 3.79L63.85 15.54C63.85 15.69 63.74 15.82 63.59 15.82L61.98 15.82C61.82 15.82 61.70 15.69 61.70 15.54L61.70 8.99L59.28 11.41L56.85 8.99L56.85 15.54C56.85 15.69 56.74 15.82 56.59 15.82L54.96 15.82C54.82 15.82 54.70 15.69 54.70 15.54Z"></path></g><!----><!----></svg>